<svg width="50" height="50" viewBox="0 0 50 50" fill="none" xmlns="http://www.w3.org/2000/svg">
<path d="M49.8775 10.7774C49.6697 9.7272 49.2012 8.73462 48.5176 7.90015C48.3787 7.72495 48.2335 7.56909 48.0747 7.41099C46.8585 6.18833 45.1667 5.48706 43.433 5.48706H6.5668C4.81377 5.48706 3.16504 6.17065 1.92432 7.41167C1.76729 7.56831 1.62168 7.72573 1.47754 7.90649C0.796875 8.73745 0.330371 9.72866 0.127539 10.7803C0.0427734 11.1933 0 11.6212 0 12.0541V37.9464C0 38.8472 0.183008 39.7244 0.545801 40.5583C0.859766 41.2988 1.33613 42.0008 1.92393 42.5883C2.07197 42.7357 2.21904 42.8716 2.37607 43.0042C3.55127 43.9774 5.03936 44.5129 6.5668 44.5129H43.433C44.9703 44.5129 46.4569 43.9753 47.629 42.9934C47.7856 42.8667 47.9309 42.7335 48.0761 42.5883C48.6442 42.0208 49.0958 41.3686 49.4204 40.6495L49.4632 40.5469C49.8192 39.7289 50 38.8545 50 37.9465V12.0541C50 11.6269 49.9588 11.1961 49.8775 10.7774ZM3.40068 9.67808C3.49355 9.54214 3.61211 9.40259 3.76338 9.25015C4.51426 8.49966 5.51006 8.08667 6.5667 8.08667H43.4329C44.4988 8.08667 45.4949 8.50034 46.2375 9.25161C46.3657 9.3812 46.4882 9.52505 46.595 9.6688L46.877 10.0477L27.1992 27.1977C26.5926 27.7295 25.8115 28.0222 24.9997 28.0222C24.1959 28.0222 23.4155 27.7302 22.8017 27.1984L3.14355 10.0526L3.40068 9.67808ZM2.61279 38.175C2.60215 38.1045 2.59971 38.0262 2.59971 37.9464V12.5903L17.8702 25.9117L2.75381 39.0915L2.61279 38.175ZM45.4003 41.3906C44.8093 41.7316 44.1286 41.9125 43.433 41.9125H6.5668C5.8708 41.9125 5.19043 41.7316 4.5998 41.3906L3.98184 41.0324L19.6006 27.4211L21.3123 28.91C22.3391 29.8014 23.6484 30.2928 24.9999 30.2928C26.3563 30.2928 27.6679 29.8014 28.6939 28.91L30.405 27.4205L46.0184 41.0332L45.4003 41.3906ZM47.3996 37.9464C47.3996 38.0249 47.3981 38.1024 47.3883 38.1714L47.2529 39.0964L32.1301 25.9188L47.3996 12.5967V37.9464Z" fill="white"/>
</svg>
