<svg width="50" height="50" viewBox="0 0 50 50" fill="none" xmlns="http://www.w3.org/2000/svg">
    <g clip-path="url(#clip0)">
    <path
        d="M22.3643 12.1312C20.4705 12.8916 18.433 13.4478 16.3601 13.4478C10.433 9.98741 2.38926 13.5937 2.38926 21.1728H2.39134C2.39134 23.9978 4.17467 27.8707 6.96217 28.8186V28.9311C4.89134 29.8582 4.31842 34.5791 7.07259 36.2749V36.3874C4.06426 37.3895 2.08301 39.3207 2.08301 42.6561C2.08301 48.404 7.45801 49.9999 12.1643 49.9999C17.8955 49.9999 22.158 47.9124 22.158 41.5166C22.158 33.6478 11.0309 36.5499 11.0309 32.2749C11.0309 30.7686 11.8247 30.1874 13.1997 29.8978C19.2851 28.7541 21.7684 22.6749 20.1955 18.3812C20.933 18.2145 21.6497 18.0124 22.3643 17.7666V12.1312ZM12.0538 39.4561V39.4541C13.9268 39.4541 16.5934 39.7895 16.5934 42.2436C16.5934 44.677 14.4455 45.1791 12.4393 45.1791C10.533 45.1791 7.66843 44.877 7.66843 42.3666C7.67884 39.8811 10.1018 39.4561 12.0538 39.4561ZM11.7018 25.0041V25.002C9.27884 25.002 8.25384 23.552 8.25384 21.2312C8.25384 15.7291 14.9747 15.7853 14.9747 21.177C14.9726 23.4416 14.0913 25.0041 11.7018 25.0041Z"
        fill="white" />
    <path
        d="M47.9163 35.9937V30.5249C47.035 31.1395 45.7683 31.452 44.6892 31.452C42.6517 31.452 42.2871 29.4416 42.2871 27.7895V17.6228C45.7808 17.6228 47.9079 17.7353 47.9079 17.7353V12.4312H42.2871C42.2871 10.902 42.2309 9.37492 42.4517 7.83325H36.2038C36.4017 8.97075 36.3684 9.94367 36.3684 12.4312H33.7246V17.7333C35.5642 17.4437 35.5975 17.6208 36.3684 17.6208V17.7333H36.3142V27.5208C36.3142 32.3749 37.0079 37.0853 42.9017 37.0853C44.5558 37.0874 46.4517 36.8083 47.9163 35.9937Z"
        fill="white" />
    <path
        d="M28.1081 0C25.906 0 24.3081 1.93958 24.3081 4.09583C24.3081 6.21667 25.9269 8.1375 28.1081 8.1375C30.2331 8.1375 31.831 6.18542 31.831 4.09583C31.831 2.01042 30.2873 0 28.1081 0V0Z"
        fill="white" />
    <path
        d="M25.0332 12.4104C25.2311 14.0604 25.2103 34.7 25.0332 36.7187H31.1499C30.9728 34.7125 30.9519 14.0396 31.1499 12.4104H25.0332Z"
        fill="white" />
    </g>
    <defs>
    <clipPath id="clip0">
        <rect width="50" height="50" fill="white" />
    </clipPath>
    </defs>
</svg>