<svg width="50" height="50" viewBox="0 0 50 50" fill="none" xmlns="http://www.w3.org/2000/svg">
    <g clip-path="url(#clip0)">
    <path
        d="M0.763184 49.7984H13.7096V15.7542H0.763184V49.7984ZM3.69287 18.6838H10.7799V46.8686H3.69287V18.6838Z"
        fill="white" />
    <path
        d="M7.23623 0.20166C3.24609 0.20166 0 3.44785 0 7.43789C0 11.4279 3.24609 14.6742 7.23623 14.6742C11.2264 14.6742 14.4726 11.428 14.4726 7.43789C14.4726 3.44775 11.2263 0.20166 7.23623 0.20166ZM2.92969 7.43789C2.92969 5.06328 4.86152 3.13135 7.23623 3.13135C9.61094 3.13135 11.5429 5.06318 11.5429 7.43789C11.5429 9.8126 9.61094 11.7445 7.23623 11.7445C4.86152 11.7445 2.92969 9.8125 2.92969 7.43789Z"
        fill="white" />
    <path
        d="M49.9688 26.4442C49.508 19.8178 43.9807 14.7114 37.128 14.7114C34.0629 14.7114 31.1694 15.7771 28.8896 17.6679V15.7538H16.4844V49.798H29.4309V31.1785C29.4309 29.0801 31.138 27.3729 33.2365 27.3729C35.3349 27.3729 37.0421 29.0801 37.0421 31.1794L37.0546 49.7981H50.0001V26.4757L49.9688 26.4442ZM26.5012 46.8686H19.4141V18.6836H25.9599V22.8679L28.3041 22.8813L28.7396 22.2052C30.5805 19.3473 33.7163 17.6412 37.128 17.6412C42.5808 17.6412 46.9467 21.8016 47.0675 27.1124L47.0704 46.8686H39.9823L39.9718 31.1785C39.9718 27.4646 36.9503 24.4432 33.2365 24.4432C29.5227 24.4432 26.5012 27.4646 26.5012 31.1785V46.8686Z"
        fill="white" />
    </g>
    <defs>
    <clipPath id="clip0">
        <rect width="50" height="50" fill="white" />
    </clipPath>
    </defs>
</svg>