<svg
    width="220"
    height="73"
    viewBox="0 0 220 73"
    fill="none"
    xmlns="http://www.w3.org/2000/svg"
>
    <g clip-path="url(#clip0)">
    <g clip-path="url(#clip1)">
        <path
        d="M36.2557 72.9999C56.2792 72.9999 72.5114 56.6583 72.5114 36.4999C72.5114 16.3415 56.2792 -0.00012207 36.2557 -0.00012207C16.2322 -0.00012207 0 16.3415 0 36.4999C0 56.6583 16.2322 72.9999 36.2557 72.9999Z"
        fill="white"
        />
        <path
        d="M27.3449 17.1542H24.4199C25.3042 17.7876 26.1545 18.5067 26.9537 19.2599L27.3449 18.9004V17.1542Z"
        fill="#A30020"
        />
        <path
        d="M26.9708 53.4487C26.1716 54.202 25.3213 54.9039 24.437 55.5545H27.362V53.8083L26.9708 53.4487Z"
        fill="#5200A8"
        />
        <path
        d="M19.4375 42.4406V55.5374H24.4371C25.3214 54.904 26.1717 54.1849 26.9709 53.4316C23.978 50.5555 21.7162 46.9089 20.5599 42.783C20.1687 42.6974 19.7946 42.5775 19.4375 42.4406Z"
        fill="#5200A2"
        />
        <path
        d="M24.4371 17.1542H19.4375V17.4623C19.7606 17.3425 20.1007 17.2398 20.4408 17.1542H24.4371Z"
        fill="#A30020"
        />
        <path
        d="M24.4371 17.1542H20.4408C20.1007 17.2569 19.7606 17.3596 19.4375 17.4623V30.251C19.8116 30.1141 20.1857 30.0113 20.5599 29.8915C21.7162 25.7656 23.961 22.119 26.9709 19.2428C26.1717 18.4895 25.3214 17.7876 24.4371 17.1542Z"
        fill="#FC000B"
        />
        <path
        d="M20.5599 29.8915C20.1857 29.9943 19.8116 30.1141 19.4375 30.2511V42.4406C19.8116 42.5775 20.1857 42.6802 20.5599 42.8001C19.9817 40.7457 19.6756 38.5885 19.6756 36.3458C19.6756 34.1202 19.9817 31.9459 20.5599 29.8915Z"
        fill="#520086"
        />
        <path d="M27.3448 53.0721L26.9707 53.4487L27.3448 53.8082V53.0721Z" fill="#520090" />
        <path d="M27.3448 18.8833L26.9707 19.2599L27.3448 19.6195V18.8833Z" fill="#C90010" />
        <path
        d="M20.5601 42.8C21.7164 46.926 23.9612 50.5726 26.9711 53.4487L27.3452 53.0721V43.6903H26.9541C24.7434 43.6903 22.5837 43.3821 20.5601 42.8Z"
        fill="#520086"
        />
        <path
        d="M26.9711 19.2599C23.9782 22.119 21.7164 25.7827 20.5601 29.9086C22.6007 29.3266 24.7434 29.0184 26.9711 29.0184H27.3623V43.6903V19.6195L26.9711 19.2599Z"
        fill="#A30020"
        />
        <path
        d="M26.9711 29.0013C24.7434 29.0013 22.6007 29.3094 20.5601 29.8915C19.9819 31.9459 19.6758 34.1031 19.6758 36.3458C19.6758 38.5714 19.9819 40.7457 20.5601 42.8001C22.6007 43.3821 24.7434 43.6903 26.9711 43.6903H27.3623V29.0184L26.9711 29.0013Z"
        fill="#52006F"
        />
        <path
        d="M38.5005 17.1542H37.123C38.8406 18.3868 40.3881 19.842 41.7145 21.5027C42.5988 22.2217 43.4321 23.0092 44.1973 23.8481L47.6494 19.4996C44.9286 17.9931 41.8166 17.1542 38.5005 17.1542Z"
        fill="#FC000B"
        />
        <path
        d="M41.7148 21.4855C42.4631 22.41 43.1433 23.3859 43.7385 24.4131L44.1976 23.831C43.4324 22.9921 42.5991 22.2046 41.7148 21.4855Z"
        fill="#CE0010"
        />
        <path
        d="M37.1232 17.1542H35.4907V17.839C37.7525 18.7292 39.8611 19.979 41.7147 21.5027C40.4053 19.842 38.8578 18.3868 37.1232 17.1542Z"
        fill="#F9000B"
        />
        <path
        d="M35.5078 17.839V30.6277C36.3411 30.953 37.1403 31.3296 37.9226 31.7576L39.317 30.0285L43.7385 24.4302C43.1433 23.403 42.4631 22.4272 41.7148 21.5027C39.8612 19.9619 37.7695 18.7292 35.5078 17.839Z"
        fill="#C90010"
        />
        <path
        d="M35.5078 30.6277V34.7365L37.9226 31.7576C37.1403 31.3296 36.3241 30.953 35.5078 30.6277Z"
        fill="#520057"
        />
        <path
        d="M47.4628 51.1889C46.8846 52.2675 46.2044 53.2776 45.4731 54.2363C46.5275 53.8254 47.5308 53.3118 48.4831 52.7297L47.4628 51.1889Z"
        fill="#520073"
        />
        <path
        d="M44.5544 46.7719C42.8369 50.2815 40.2691 53.2947 37.123 55.5545H38.5005C40.9663 55.5545 43.313 55.0923 45.4557 54.2363C46.204 53.2775 46.8672 52.2503 47.4454 51.1889L44.5544 46.7719Z"
        fill="#520086"
        />
        <path
        d="M39.9462 39.7869L35.4907 44.2553V55.5545H37.1232C40.2693 53.2947 42.8371 50.2815 44.5546 46.7719L39.9462 39.7869Z"
        fill="#520090"
        />
        <path
        d="M53.4314 24.396L48.4318 30.388L47.3775 31.6378L46.6463 32.528L45.3198 34.1202L46.6463 32.528L47.3945 31.6378L48.4488 30.388C49.6902 33.2642 50.3875 36.4485 50.3875 39.7869C50.3875 40.3348 50.3705 40.8826 50.3364 41.4134L54.2817 47.1828C56.3734 44.1012 57.5978 40.369 57.5978 36.3458C57.5808 31.8261 56.0333 27.6659 53.4314 24.396Z"
        fill="#FF0035"
        />
        <path
        d="M48.4317 30.388L47.3774 31.6378C47.1563 32.0315 46.9353 32.4253 46.6802 32.8019C46.8502 33.949 46.9353 35.1303 46.9353 36.3458V36.4999L50.3023 41.4133C50.3364 40.8826 50.3534 40.3348 50.3534 39.7869C50.3704 36.4485 49.6901 33.2642 48.4317 30.388Z"
        fill="#A30020"
        />
        <path
        d="M47.3947 31.6378L46.6465 32.528L46.6975 32.819C46.9526 32.4253 47.1737 32.0315 47.3947 31.6378Z"
        fill="#A30020"
        />
        <path
        d="M46.6975 32.819C46.3404 33.384 45.9662 33.9318 45.5581 34.4626L46.9696 36.517V36.3629C46.9696 35.1474 46.8675 33.9661 46.6975 32.819Z"
        fill="#C90010"
        />
        <path
        d="M46.6463 32.528L45.3198 34.1202L45.5409 34.4455C45.949 33.9147 46.3232 33.3669 46.6803 32.8019L46.6463 32.528Z"
        fill="#C90010"
        />
        <path
        d="M84.3301 14.2095H88.7175C89.4827 14.2095 90.197 14.2951 90.8772 14.4663C91.5574 14.6375 92.1696 14.8943 92.7138 15.2025C93.309 15.5278 93.8532 15.9215 94.3123 16.4009C94.7885 16.8803 95.1796 17.4281 95.4857 18.0273C95.8088 18.6436 96.0639 19.3284 96.2339 20.0817C96.421 20.8179 96.506 21.6225 96.506 22.4614V23.8653C96.506 24.6699 96.421 25.4403 96.2509 26.1593C96.0809 26.8784 95.8428 27.5461 95.5367 28.1453C95.2306 28.7274 94.8735 29.2581 94.4483 29.7203C94.0232 30.1997 93.5471 30.5934 93.0369 30.9358C92.4587 31.2954 91.8125 31.5864 91.0983 31.7747C90.384 31.9631 89.6188 32.0658 88.8195 32.0658H84.3301V14.2095ZM87.289 29.6861H88.8195C89.3467 29.6861 89.8229 29.6176 90.248 29.4978C90.6901 29.3779 91.0813 29.1896 91.4214 28.9499C91.7785 28.7102 92.1016 28.4021 92.3737 28.0254C92.6458 27.6488 92.8838 27.2208 93.0539 26.7414C93.2069 26.3305 93.326 25.8854 93.411 25.4061C93.496 24.9267 93.5301 24.4131 93.5301 23.8653V22.4443C93.5301 21.8964 93.496 21.4 93.411 20.9035C93.326 20.407 93.2069 19.979 93.0539 19.5681C92.8668 19.0716 92.5947 18.6094 92.2716 18.2156C91.9485 17.8047 91.5574 17.4795 91.1153 17.2227C90.7922 17.0343 90.418 16.8974 90.0269 16.7947C89.6358 16.6919 89.1766 16.6406 88.7175 16.6235H87.289V29.6861Z"
        fill="white"
        />
        <path
        d="M101.268 20.2701C101.523 19.7393 101.863 19.3284 102.305 19.0203C102.747 18.7121 103.274 18.558 103.903 18.558C104.226 18.558 104.516 18.5923 104.788 18.6608C105.043 18.7292 105.264 18.8491 105.451 19.0032C105.604 19.123 105.723 19.26 105.842 19.414C105.961 19.5681 106.046 19.7564 106.131 19.9619C106.25 19.7736 106.369 19.6024 106.522 19.4312C106.675 19.26 106.828 19.123 106.998 19.0203C107.219 18.8662 107.458 18.7635 107.73 18.6779C108.002 18.5923 108.308 18.558 108.631 18.558C109.056 18.558 109.447 18.6265 109.787 18.7806C110.144 18.9176 110.45 19.1401 110.706 19.4312C110.961 19.7393 111.165 20.1502 111.301 20.6467C111.437 21.1432 111.522 21.7424 111.522 22.4272V32.0829H108.835V22.4101C108.835 22.1533 108.801 21.9307 108.75 21.7424C108.699 21.5541 108.614 21.4171 108.512 21.2973C108.41 21.1945 108.274 21.1089 108.121 21.0576C107.968 21.0062 107.815 20.9891 107.628 20.9891C107.441 20.9891 107.27 21.0062 107.134 21.0576C106.998 21.1089 106.879 21.1774 106.777 21.263C106.675 21.3486 106.607 21.4342 106.539 21.5541C106.471 21.6568 106.42 21.7937 106.386 21.9307C106.386 21.9649 106.386 21.9992 106.386 22.0505C106.386 22.1019 106.386 22.1533 106.386 22.2389V32.0829H103.75V22.3929C103.75 22.1361 103.733 21.9136 103.665 21.7253C103.597 21.5369 103.529 21.4 103.427 21.2973C103.325 21.1945 103.189 21.1089 103.053 21.0576C102.917 21.0062 102.747 20.9891 102.577 20.9891C102.39 20.9891 102.203 21.0233 102.067 21.0747C101.914 21.1261 101.795 21.2117 101.676 21.3144C101.591 21.3829 101.523 21.4685 101.455 21.5712C101.387 21.6739 101.336 21.7766 101.285 21.8965V32.1H98.5977V18.832H101.131L101.268 20.2701Z"
        fill="white"
        />
        <path
        d="M122.167 18.7977V29.6347H126.045V32.0658H115.178V29.6347H119.243V21.2288H115.178V18.7806H122.167V18.7977ZM119.072 14.706C119.157 14.5006 119.277 14.3294 119.43 14.1924C119.583 14.0555 119.753 13.9528 119.957 13.8672C120.161 13.7987 120.399 13.7473 120.654 13.7473C121.096 13.7473 121.453 13.8672 121.725 14.0897C121.997 14.3123 122.15 14.6033 122.201 14.9457C122.253 15.3052 122.201 15.6134 122.014 15.8873C121.827 16.1612 121.572 16.3324 121.232 16.418C121.062 16.5721 120.858 16.6748 120.62 16.7262C120.382 16.7776 120.127 16.7604 119.838 16.6577C119.549 16.5721 119.328 16.4009 119.175 16.1784C119.038 15.9558 118.953 15.6819 118.953 15.3737C118.953 15.134 119.004 14.9115 119.072 14.706Z"
        fill="white"
        />
        <path
        d="M135.329 18.7977H140.295V20.9891H135.329V27.3235C135.329 27.82 135.381 28.2309 135.5 28.5561C135.619 28.8814 135.789 29.1382 135.993 29.3437C136.214 29.532 136.452 29.6861 136.741 29.7546C137.03 29.8402 137.353 29.8744 137.71 29.8744C137.965 29.8744 138.22 29.8573 138.493 29.8402C138.765 29.823 139.02 29.7888 139.275 29.7374C139.513 29.7032 139.751 29.669 139.972 29.6176C140.193 29.5662 140.363 29.532 140.516 29.4978L140.839 31.5179C140.635 31.6549 140.38 31.7576 140.074 31.8603C139.785 31.963 139.462 32.0315 139.122 32.1C138.782 32.1685 138.424 32.2198 138.05 32.2541C137.676 32.2883 137.319 32.3054 136.945 32.3054C136.282 32.3054 135.67 32.2198 135.108 32.0315C134.547 31.8432 134.071 31.5522 133.68 31.1755C133.289 30.7989 132.966 30.3024 132.745 29.6861C132.524 29.0869 132.405 28.3507 132.405 27.4947V20.972H129.208V18.7806H132.405V15.562H135.329V18.7977Z"
        fill="white"
        />
        <path
        d="M154.937 18.6608C155.379 18.7293 155.719 18.7978 155.974 18.9005L155.566 21.7938C155.124 21.6911 154.682 21.6226 154.24 21.5712C153.798 21.5199 153.373 21.5027 152.947 21.5027C152.454 21.5027 152.029 21.5541 151.638 21.6568C151.247 21.7595 150.907 21.9136 150.601 22.1191C150.278 22.3074 150.005 22.5642 149.767 22.8723C149.529 23.1805 149.342 23.5229 149.189 23.9167V32.1172H146.281V18.8491H149.019L149.138 20.6981L149.155 21.0063C149.699 20.2701 150.329 19.6709 151.094 19.26C151.842 18.832 152.675 18.6266 153.577 18.6266C154.036 18.5581 154.495 18.5923 154.937 18.6608Z"
        fill="white"
        />
        <path
        d="M167.096 18.7977V29.6347H170.973V32.0658H160.106V29.6347H164.171V21.2288H160.106V18.7806H167.096V18.7977ZM164.018 14.706C164.103 14.5006 164.222 14.3294 164.375 14.1924C164.528 14.0555 164.698 13.9528 164.902 13.8672C165.106 13.7987 165.344 13.7473 165.599 13.7473C166.041 13.7473 166.398 13.8672 166.671 14.0897C166.943 14.3123 167.096 14.6033 167.147 14.9457C167.198 15.3052 167.147 15.6134 166.96 15.8873C166.773 16.1612 166.518 16.3324 166.177 16.418C166.007 16.5721 165.803 16.6748 165.565 16.7262C165.327 16.7776 165.072 16.7604 164.783 16.6577C164.494 16.5721 164.273 16.4009 164.12 16.1784C163.967 15.9387 163.899 15.6819 163.899 15.3566C163.882 15.134 163.933 14.9115 164.018 14.706Z"
        fill="white"
        />
        <path
        d="M175.258 37.373C175.003 37.3217 174.765 37.2703 174.527 37.219L174.935 34.9249C175.088 34.9249 175.275 34.942 175.496 34.9591C175.7 34.9762 175.87 34.9762 176.006 34.9762C176.296 34.9762 176.551 34.8906 176.772 34.7194C176.993 34.5482 177.197 34.3599 177.367 34.1545C177.537 33.949 177.656 33.7607 177.758 33.5895C177.86 33.4183 177.962 33.2471 178.047 33.0759L178.88 31.5009L173.269 18.8149H176.466L179.748 26.9298L180.19 28.385L180.734 26.964L183.914 18.8149H187.145L180.462 34.1031C180.309 34.4455 180.122 34.8221 179.884 35.1988C179.646 35.5926 179.357 35.9521 179.016 36.2774C178.659 36.6198 178.251 36.8937 177.775 37.1162C177.299 37.3388 176.738 37.4586 176.091 37.4586C175.785 37.4415 175.513 37.4244 175.258 37.373Z"
        fill="white"
        />
        <path
        d="M87.4082 51.6169V57.198H84.4492V39.3418H87.4082V47.7478L89.0577 45.5735L93.7342 39.3418H97.3224L91.2514 47.1999L97.6285 57.198H94.1253L89.3298 49.4598L87.4082 51.6169Z"
        fill="white"
        />
        <path
        d="M110.451 43.7931C110.893 43.8615 111.233 43.93 111.488 44.0327L111.08 46.926C110.638 46.8233 110.196 46.7548 109.753 46.7035C109.311 46.6521 108.886 46.635 108.461 46.635C107.968 46.635 107.543 46.6864 107.152 46.7891C106.761 46.8918 106.42 47.0459 106.114 47.2513C105.791 47.4396 105.519 47.6964 105.281 48.0046C105.043 48.3128 104.856 48.6552 104.703 49.0489V57.2494H101.795V43.9814H104.533L104.652 45.8304L104.669 46.1385C105.213 45.4024 105.842 44.8032 106.607 44.3923C107.356 43.9643 108.189 43.7588 109.09 43.7588C109.549 43.6903 110.009 43.7246 110.451 43.7931Z"
        fill="white"
        />
        <path
        d="M118.868 56.9584C118.069 56.6331 117.372 56.1708 116.794 55.6059C116.216 55.0409 115.773 54.3561 115.467 53.5686C115.161 52.7811 114.991 51.9422 114.991 51.0348V50.5383C114.991 49.494 115.161 48.5524 115.484 47.7135C115.807 46.8746 116.25 46.1556 116.828 45.5564C117.406 44.9572 118.052 44.4949 118.8 44.1697C119.549 43.8444 120.348 43.6903 121.215 43.6903C122.168 43.6903 123.001 43.8444 123.732 44.1697C124.463 44.4949 125.075 44.9401 125.569 45.5222C126.062 46.1042 126.436 46.789 126.691 47.5937C126.946 48.3983 127.065 49.2715 127.065 50.2131V51.4799H117.933V51.5484C118.018 52.1305 118.154 52.6099 118.341 53.0036C118.528 53.3974 118.783 53.7398 119.107 54.0651C119.43 54.3904 119.821 54.6472 120.263 54.8184C120.705 55.0067 121.198 55.0923 121.725 55.0923C122.44 55.0923 123.12 54.9553 123.749 54.6643C124.378 54.3904 124.888 53.9795 125.297 53.4487L126.861 54.9724C126.419 55.6059 125.756 56.188 124.837 56.6844C123.936 57.198 122.831 57.4377 121.555 57.4377C120.569 57.4548 119.685 57.2836 118.868 56.9584ZM120.042 46.2926C119.685 46.4466 119.379 46.6521 119.09 46.9431C118.817 47.2342 118.579 47.5766 118.392 47.9703C118.205 48.3641 118.069 48.8263 117.984 49.3399H124.191V49.1345C124.191 48.7579 124.123 48.3641 123.987 47.9874C123.851 47.6108 123.647 47.2684 123.409 46.9945C123.171 46.7206 122.865 46.498 122.491 46.3268C122.117 46.1556 121.691 46.07 121.198 46.07C120.773 46.07 120.399 46.1385 120.042 46.2926Z"
        fill="white"
        />
        <path
        d="M137.608 54.9382C137.948 54.8355 138.237 54.6643 138.509 54.4588C138.764 54.2534 138.969 54.0137 139.105 53.7398C139.258 53.4659 139.326 53.1577 139.326 52.8153H142.064C142.064 53.4659 141.928 54.0651 141.638 54.63C141.349 55.195 140.941 55.6915 140.431 56.1024C139.921 56.5304 139.326 56.8556 138.662 57.0953C137.999 57.335 137.302 57.4548 136.571 57.4548C135.55 57.4548 134.666 57.2836 133.901 56.9241C133.136 56.5646 132.506 56.0852 132.013 55.486C131.503 54.8868 131.112 54.1678 130.857 53.3631C130.602 52.5585 130.466 51.7025 130.466 50.778V50.35C130.466 49.4427 130.602 48.5866 130.857 47.782C131.112 46.9774 131.503 46.2583 132.013 45.6591C132.523 45.0599 133.153 44.5806 133.918 44.221C134.683 43.8615 135.567 43.6903 136.571 43.6903C137.37 43.6903 138.101 43.8101 138.782 44.0498C139.462 44.2895 140.04 44.6319 140.533 45.077C141.026 45.5222 141.4 46.0529 141.672 46.6521C141.945 47.2684 142.081 47.9361 142.064 48.6722H139.326C139.326 48.3127 139.258 47.9703 139.122 47.6622C138.986 47.3369 138.799 47.063 138.56 46.8233C138.305 46.5836 138.016 46.3953 137.659 46.2583C137.302 46.1214 136.945 46.0529 136.537 46.0529C135.925 46.0529 135.414 46.1727 135.023 46.4295C134.632 46.6863 134.309 46.9945 134.071 47.4054C133.816 47.7991 133.646 48.2614 133.544 48.775C133.442 49.2886 133.391 49.8193 133.391 50.35V50.778C133.391 51.3259 133.442 51.8566 133.544 52.3702C133.646 52.8838 133.816 53.346 134.054 53.7398C134.292 54.1507 134.615 54.476 135.023 54.7156C135.431 54.9553 135.942 55.0752 136.554 55.0752C136.928 55.0923 137.285 55.0409 137.608 54.9382Z"
        fill="white"
        />
        <path
        d="M149.733 45.0942C149.937 44.8716 150.175 44.6833 150.396 44.5121C150.754 44.2382 151.162 44.0327 151.604 43.8958C152.046 43.7588 152.522 43.6732 153.015 43.6732C153.712 43.6732 154.342 43.7759 154.92 43.9814C155.498 44.1868 155.974 44.5121 156.382 44.9401C156.79 45.3681 157.097 45.933 157.335 46.6007C157.556 47.2684 157.675 48.0902 157.675 49.0318V57.1981H154.75V48.9975C154.75 48.5011 154.699 48.0731 154.58 47.7135C154.461 47.3369 154.291 47.0458 154.07 46.8233C153.832 46.5836 153.542 46.3953 153.219 46.2754C152.896 46.1556 152.488 46.1042 152.063 46.1042C151.723 46.1042 151.4 46.1385 151.094 46.2241C150.788 46.3097 150.515 46.4295 150.26 46.5836C150.056 46.7034 149.852 46.8575 149.665 47.0287C149.478 47.1999 149.325 47.3882 149.189 47.6108V57.2152H146.247V38.366H149.155V45.8303C149.325 45.5564 149.529 45.3167 149.733 45.0942Z"
        fill="white"
        />
        <path
        d="M165.157 56.9584C164.358 56.6331 163.661 56.1708 163.082 55.6059C162.504 55.0409 162.062 54.3561 161.756 53.5686C161.45 52.7811 161.28 51.9422 161.28 51.0348V50.5383C161.28 49.494 161.45 48.5524 161.773 47.7135C162.096 46.8746 162.538 46.1556 163.116 45.5564C163.695 44.9572 164.341 44.4949 165.089 44.1697C165.837 43.8444 166.637 43.6903 167.504 43.6903C168.456 43.6903 169.289 43.8444 170.021 44.1697C170.752 44.4949 171.364 44.9401 171.857 45.5222C172.35 46.1042 172.724 46.789 172.98 47.5937C173.235 48.3983 173.354 49.2715 173.354 50.2131V51.4799H164.222V51.5484C164.307 52.1305 164.443 52.6099 164.63 53.0036C164.817 53.3974 165.072 53.7398 165.395 54.0651C165.718 54.3904 166.109 54.6472 166.551 54.8184C166.994 55.0067 167.487 55.0923 168.014 55.0923C168.728 55.0923 169.408 54.9553 170.038 54.6643C170.667 54.3904 171.177 53.9795 171.585 53.4487L173.15 54.9724C172.707 55.6059 172.044 56.188 171.126 56.6844C170.225 57.198 169.119 57.4377 167.844 57.4377C166.858 57.4548 165.956 57.2836 165.157 56.9584ZM166.33 46.2926C165.973 46.4466 165.667 46.6521 165.378 46.9431C165.106 47.2342 164.868 47.5766 164.681 47.9703C164.494 48.3641 164.358 48.8263 164.273 49.3399H170.48V49.1345C170.48 48.7579 170.412 48.3641 170.276 47.9874C170.14 47.6108 169.936 47.2684 169.698 46.9945C169.459 46.7206 169.153 46.498 168.779 46.3268C168.405 46.1556 167.98 46.07 167.487 46.07C167.062 46.07 166.671 46.1385 166.33 46.2926Z"
        fill="white"
        />
        <path
        d="M182.945 43.93H187.91V46.1214H182.945V52.4558C182.945 52.9523 182.996 53.3632 183.115 53.6884C183.234 54.0137 183.404 54.2705 183.608 54.476C183.829 54.6643 184.067 54.8184 184.356 54.8868C184.645 54.9725 184.968 55.0067 185.325 55.0067C185.581 55.0067 185.836 54.9896 186.108 54.9724C186.38 54.9553 186.635 54.9211 186.89 54.8697C187.128 54.8355 187.366 54.8012 187.587 54.7499C187.808 54.6985 187.978 54.6643 188.131 54.63L188.454 56.6502C188.25 56.7872 187.995 56.8899 187.689 56.9926C187.4 57.0953 187.077 57.1638 186.737 57.2323C186.397 57.3008 186.04 57.3521 185.666 57.3864C185.291 57.4206 184.934 57.4377 184.56 57.4377C183.897 57.4377 183.285 57.3521 182.724 57.1638C182.162 56.9755 181.686 56.6845 181.295 56.3078C180.904 55.9312 180.581 55.4347 180.36 54.8184C180.139 54.2192 180.02 53.483 180.02 52.627V46.1042H176.823V43.9129H180.02V40.6772H182.945V43.93Z"
        fill="white"
        />
        <path
        d="M192.4 47.7649C192.672 46.9431 193.08 46.2241 193.607 45.6249C194.134 45.0257 194.764 44.5463 195.529 44.2039C196.277 43.8615 197.144 43.6903 198.114 43.6903C199.083 43.6903 199.95 43.8615 200.698 44.2039C201.464 44.5463 202.11 45.0257 202.637 45.6249C203.164 46.2241 203.555 46.9431 203.827 47.7649C204.1 48.5866 204.236 49.4769 204.236 50.4527V50.7095C204.236 51.6854 204.1 52.5756 203.827 53.3974C203.555 54.2192 203.147 54.9211 202.637 55.5374C202.127 56.1537 201.481 56.616 200.715 56.9584C199.95 57.3008 199.1 57.472 198.131 57.472C197.161 57.472 196.294 57.3008 195.529 56.9584C194.764 56.616 194.117 56.1366 193.607 55.5374C193.08 54.9382 192.672 54.2192 192.4 53.3974C192.128 52.5756 191.992 51.6854 191.992 50.7095V50.4527C191.992 49.4769 192.128 48.5866 192.4 47.7649ZM195.087 52.4044C195.206 52.9351 195.41 53.3974 195.682 53.8083C195.937 54.202 196.277 54.5273 196.685 54.767C197.093 55.0067 197.569 55.1094 198.131 55.1094C198.675 55.1094 199.151 54.9896 199.559 54.767C199.967 54.5273 200.29 54.2192 200.562 53.8083C200.818 53.4145 201.022 52.9351 201.141 52.4044C201.26 51.8737 201.328 51.3087 201.328 50.7095V50.4527C201.328 49.8707 201.26 49.3228 201.124 48.7921C200.988 48.2614 200.801 47.7991 200.545 47.3882C200.273 46.9945 199.95 46.6692 199.542 46.4295C199.134 46.1898 198.658 46.07 198.097 46.07C197.552 46.07 197.059 46.1898 196.668 46.4295C196.277 46.6692 195.937 46.9774 195.682 47.3882C195.41 47.782 195.223 48.2614 195.087 48.7921C194.951 49.3228 194.9 49.8707 194.9 50.4527V50.7095C194.9 51.3087 194.968 51.8566 195.087 52.4044Z"
        fill="white"
        />
        <path
        d="M207.076 43.93H210.103L213.368 53.5686L213.555 54.4588L213.742 53.5686L216.973 43.93H220L214.83 57.1981H212.262L207.076 43.93Z"
        fill="white"
        />
    </g>
    </g>
    <defs>
    <clipPath id="clip0">
        <rect width="220" height="73" fill="white" />
    </clipPath>
    <clipPath id="clip1">
        <rect width="220" height="73" fill="white" transform="translate(0 -0.00012207)" />
    </clipPath>
    </defs>
</svg>