<svg width="50" height="50" viewBox="0 0 50 50" fill="none" xmlns="http://www.w3.org/2000/svg">
    <g clip-path="url(#clip0)">
    <path
        d="M49.228 4.96674C48.6172 4.21982 47.7025 3.80859 46.6519 3.80859C46.0809 3.80859 45.4758 3.92876 44.854 4.16641L2.52999 20.3228C0.283892 21.18 -0.0186135 22.4663 0.000841414 23.1567C0.0202963 23.8472 0.395281 25.1144 2.68639 25.8434C2.70012 25.8476 2.71385 25.8518 2.72759 25.8556L11.5067 28.368L16.2545 41.9445C16.9019 43.7954 18.3549 44.9451 20.0471 44.9451C21.114 44.9451 22.1635 44.4981 23.082 43.6527L28.5123 38.6528L36.3885 44.9947C36.3892 44.9955 36.3904 44.9959 36.3911 44.9966L36.4659 45.0569C36.4728 45.0623 36.48 45.068 36.4869 45.0733C37.3624 45.7523 38.3179 46.1109 39.2514 46.1113H39.2518C41.0756 46.1113 42.5278 44.7613 42.9509 42.6723L49.8856 8.4301C50.1641 7.05566 49.9306 5.82581 49.228 4.96674ZM14.4437 27.8908L31.3813 19.2379L20.8348 30.4443C20.662 30.6278 20.5396 30.8525 20.4793 31.097L18.4457 39.3345L14.4437 27.8908ZM21.0973 41.4974C21.0271 41.5619 20.9565 41.6195 20.8859 41.6725L22.7727 34.0309L26.2048 36.7947L21.0973 41.4974ZM47.0143 7.84836L40.0796 42.091C40.0128 42.4187 39.7996 43.1812 39.2514 43.1812C38.9806 43.1812 38.6403 43.0336 38.292 42.7654L29.3671 35.5793C29.366 35.5782 29.3645 35.577 29.3629 35.5762L24.0525 31.3L39.304 15.094C39.7923 14.5752 39.8366 13.7806 39.409 13.2107C38.9809 12.6408 38.2054 12.4615 37.571 12.7857L12.4863 25.6008L3.5878 23.0549L45.8989 6.90346C46.2563 6.76689 46.5058 6.73828 46.6519 6.73828C46.7416 6.73828 46.901 6.74896 46.9601 6.82182C47.038 6.91681 47.1371 7.24068 47.0143 7.84836Z"
        fill="white" />
    </g>
    <defs>
    <clipPath id="clip0">
        <rect width="50" height="50" fill="white" />
    </clipPath>
    </defs>
</svg>